<mxfile host="Electron" modified="2024-05-12T10:03:19.967Z" agent="Mozilla/5.0 (Windows NT 10.0; Win64; x64) AppleWebKit/537.36 (KHTML, like Gecko) draw.io/24.2.5 Chrome/120.0.6099.109 Electron/28.1.0 Safari/537.36" etag="2NUkr3cTpQmxOPYGMlyt" version="24.2.5" type="device">
  <diagram name="Sayfa -1" id="EbYH6_zNYih0m5m2DhFU">
    <mxGraphModel dx="2261" dy="844" grid="1" gridSize="10" guides="1" tooltips="1" connect="1" arrows="1" fold="1" page="1" pageScale="1" pageWidth="827" pageHeight="1169" math="0" shadow="0">
      <root>
        <mxCell id="0" />
        <mxCell id="1" parent="0" />
        <mxCell id="zc3lC73bRbIteGUZRqW--3" style="edgeStyle=orthogonalEdgeStyle;rounded=0;orthogonalLoop=1;jettySize=auto;html=1;exitX=0.5;exitY=0;exitDx=0;exitDy=0;entryX=0;entryY=0.5;entryDx=0;entryDy=0;" edge="1" parent="1" source="zc3lC73bRbIteGUZRqW--1" target="zc3lC73bRbIteGUZRqW--2">
          <mxGeometry relative="1" as="geometry" />
        </mxCell>
        <mxCell id="zc3lC73bRbIteGUZRqW--6" style="edgeStyle=orthogonalEdgeStyle;rounded=0;orthogonalLoop=1;jettySize=auto;html=1;exitX=0.5;exitY=1;exitDx=0;exitDy=0;entryX=0;entryY=0.75;entryDx=0;entryDy=0;" edge="1" parent="1" source="zc3lC73bRbIteGUZRqW--1" target="zc3lC73bRbIteGUZRqW--5">
          <mxGeometry relative="1" as="geometry" />
        </mxCell>
        <mxCell id="zc3lC73bRbIteGUZRqW--1" value="&lt;b style=&quot;font-size: 15px;&quot;&gt;&lt;font style=&quot;font-size: 15px;&quot;&gt;Restoran&lt;/font&gt;&lt;/b&gt;&lt;div style=&quot;font-size: 15px;&quot;&gt;&lt;b style=&quot;&quot;&gt;&lt;font style=&quot;font-size: 15px;&quot;&gt;Filtreleme&lt;/font&gt;&lt;/b&gt;&lt;/div&gt;" style="rounded=0;whiteSpace=wrap;html=1;fillColor=#dae8fc;strokeColor=#6c8ebf;" vertex="1" parent="1">
          <mxGeometry x="-660" y="300" width="150" height="70" as="geometry" />
        </mxCell>
        <mxCell id="zc3lC73bRbIteGUZRqW--8" style="edgeStyle=orthogonalEdgeStyle;rounded=0;orthogonalLoop=1;jettySize=auto;html=1;exitX=1;exitY=0.25;exitDx=0;exitDy=0;entryX=0;entryY=0.5;entryDx=0;entryDy=0;" edge="1" parent="1" source="zc3lC73bRbIteGUZRqW--2" target="zc3lC73bRbIteGUZRqW--7">
          <mxGeometry relative="1" as="geometry" />
        </mxCell>
        <mxCell id="zc3lC73bRbIteGUZRqW--10" style="edgeStyle=orthogonalEdgeStyle;rounded=0;orthogonalLoop=1;jettySize=auto;html=1;exitX=1;exitY=0.75;exitDx=0;exitDy=0;entryX=0;entryY=0.5;entryDx=0;entryDy=0;" edge="1" parent="1" source="zc3lC73bRbIteGUZRqW--2">
          <mxGeometry relative="1" as="geometry">
            <mxPoint x="420" y="225" as="targetPoint" />
          </mxGeometry>
        </mxCell>
        <mxCell id="zc3lC73bRbIteGUZRqW--2" value="&lt;b style=&quot;font-size: 14px;&quot;&gt;&lt;font style=&quot;font-size: 14px;&quot;&gt;Önceden Ayarlanmış&amp;nbsp;&lt;/font&gt;&lt;/b&gt;&lt;div style=&quot;font-size: 14px;&quot;&gt;&lt;b style=&quot;&quot;&gt;&lt;font style=&quot;font-size: 14px;&quot;&gt;Kullanıcı Filtreleri&lt;/font&gt;&lt;/b&gt;&lt;/div&gt;" style="rounded=0;whiteSpace=wrap;html=1;fillColor=#d5e8d4;strokeColor=#82b366;" vertex="1" parent="1">
          <mxGeometry x="-330" y="170" width="150" height="70" as="geometry" />
        </mxCell>
        <mxCell id="zc3lC73bRbIteGUZRqW--17" style="edgeStyle=orthogonalEdgeStyle;rounded=0;orthogonalLoop=1;jettySize=auto;html=1;exitX=1;exitY=0.5;exitDx=0;exitDy=0;entryX=0;entryY=0.5;entryDx=0;entryDy=0;" edge="1" parent="1" source="zc3lC73bRbIteGUZRqW--5" target="zc3lC73bRbIteGUZRqW--16">
          <mxGeometry relative="1" as="geometry" />
        </mxCell>
        <mxCell id="zc3lC73bRbIteGUZRqW--5" value="&lt;b&gt;&lt;font style=&quot;font-size: 15px;&quot;&gt;Manuel Filtre Seçimi&lt;/font&gt;&lt;/b&gt;" style="rounded=0;whiteSpace=wrap;html=1;fillColor=#f8cecc;strokeColor=#b85450;" vertex="1" parent="1">
          <mxGeometry x="-330" y="450" width="150" height="70" as="geometry" />
        </mxCell>
        <mxCell id="zc3lC73bRbIteGUZRqW--14" style="edgeStyle=orthogonalEdgeStyle;rounded=0;orthogonalLoop=1;jettySize=auto;html=1;exitX=1;exitY=0.5;exitDx=0;exitDy=0;entryX=0;entryY=0.75;entryDx=0;entryDy=0;" edge="1" parent="1" source="zc3lC73bRbIteGUZRqW--7" target="zc3lC73bRbIteGUZRqW--11">
          <mxGeometry relative="1" as="geometry" />
        </mxCell>
        <mxCell id="zc3lC73bRbIteGUZRqW--7" value="&lt;b style=&quot;font-size: 14px;&quot;&gt;&lt;font style=&quot;font-size: 14px;&quot;&gt;Ekstra Filtre&lt;/font&gt;&lt;/b&gt;&lt;div style=&quot;font-size: 14px;&quot;&gt;&lt;b style=&quot;&quot;&gt;&lt;font style=&quot;font-size: 14px;&quot;&gt;Seçimi&lt;/font&gt;&lt;/b&gt;&lt;/div&gt;" style="rounded=0;whiteSpace=wrap;html=1;fillColor=#e1d5e7;strokeColor=#9673a6;" vertex="1" parent="1">
          <mxGeometry x="-60" y="110" width="150" height="70" as="geometry" />
        </mxCell>
        <mxCell id="zc3lC73bRbIteGUZRqW--11" value="&lt;b style=&quot;font-size: 14px;&quot;&gt;Filtrelenen Restoranların&lt;/b&gt;&lt;div style=&quot;font-size: 14px;&quot;&gt;&lt;b&gt;Görüntülenmesi&lt;/b&gt;&lt;/div&gt;" style="rounded=1;whiteSpace=wrap;html=1;fillColor=#fad9d5;strokeColor=#ae4132;" vertex="1" parent="1">
          <mxGeometry x="414" y="120" width="230" height="35" as="geometry" />
        </mxCell>
        <mxCell id="zc3lC73bRbIteGUZRqW--13" value="&lt;b style=&quot;font-size: 14px;&quot;&gt;Filtrelenen Restoranların&lt;/b&gt;&lt;div style=&quot;font-size: 14px;&quot;&gt;&lt;b&gt;Görüntülenmesi&lt;/b&gt;&lt;/div&gt;" style="rounded=1;whiteSpace=wrap;html=1;fillColor=#fad9d5;strokeColor=#ae4132;" vertex="1" parent="1">
          <mxGeometry x="420" y="205" width="230" height="35" as="geometry" />
        </mxCell>
        <mxCell id="zc3lC73bRbIteGUZRqW--22" style="edgeStyle=orthogonalEdgeStyle;rounded=0;orthogonalLoop=1;jettySize=auto;html=1;exitX=1;exitY=0.25;exitDx=0;exitDy=0;entryX=0;entryY=0.5;entryDx=0;entryDy=0;" edge="1" parent="1" source="zc3lC73bRbIteGUZRqW--16" target="zc3lC73bRbIteGUZRqW--21">
          <mxGeometry relative="1" as="geometry" />
        </mxCell>
        <mxCell id="zc3lC73bRbIteGUZRqW--25" style="edgeStyle=orthogonalEdgeStyle;rounded=0;orthogonalLoop=1;jettySize=auto;html=1;exitX=1;exitY=0.75;exitDx=0;exitDy=0;entryX=0;entryY=0.5;entryDx=0;entryDy=0;" edge="1" parent="1" source="zc3lC73bRbIteGUZRqW--16" target="zc3lC73bRbIteGUZRqW--23">
          <mxGeometry relative="1" as="geometry" />
        </mxCell>
        <mxCell id="zc3lC73bRbIteGUZRqW--16" value="&lt;span style=&quot;font-size: 15px;&quot;&gt;&lt;b&gt;Alerji Seçimi&lt;/b&gt;&lt;/span&gt;" style="rounded=0;whiteSpace=wrap;html=1;fillColor=#bac8d3;strokeColor=#23445d;" vertex="1" parent="1">
          <mxGeometry x="-60" y="450" width="150" height="70" as="geometry" />
        </mxCell>
        <mxCell id="zc3lC73bRbIteGUZRqW--21" value="&lt;b style=&quot;font-size: 14px;&quot;&gt;Filtrelenen Restoranların&lt;/b&gt;&lt;div style=&quot;font-size: 14px;&quot;&gt;&lt;b&gt;Görüntülenmesi&lt;/b&gt;&lt;/div&gt;" style="rounded=1;whiteSpace=wrap;html=1;fillColor=#fad9d5;strokeColor=#ae4132;" vertex="1" parent="1">
          <mxGeometry x="420" y="450" width="230" height="35" as="geometry" />
        </mxCell>
        <mxCell id="zc3lC73bRbIteGUZRqW--27" style="edgeStyle=orthogonalEdgeStyle;rounded=0;orthogonalLoop=1;jettySize=auto;html=1;exitX=1;exitY=0.5;exitDx=0;exitDy=0;entryX=0;entryY=0.5;entryDx=0;entryDy=0;" edge="1" parent="1" source="zc3lC73bRbIteGUZRqW--23" target="zc3lC73bRbIteGUZRqW--26">
          <mxGeometry relative="1" as="geometry" />
        </mxCell>
        <mxCell id="zc3lC73bRbIteGUZRqW--23" value="&lt;span style=&quot;font-size: 15px;&quot;&gt;&lt;b&gt;Yemek Türü/Kültürü&amp;nbsp;&lt;/b&gt;&lt;/span&gt;&lt;div&gt;&lt;span style=&quot;font-size: 15px;&quot;&gt;&lt;b&gt;Filtreleri Seçimi&lt;/b&gt;&lt;/span&gt;&lt;/div&gt;" style="rounded=0;whiteSpace=wrap;html=1;fillColor=#ffe6cc;strokeColor=#d79b00;" vertex="1" parent="1">
          <mxGeometry x="170" y="585" width="150" height="70" as="geometry" />
        </mxCell>
        <mxCell id="zc3lC73bRbIteGUZRqW--26" value="&lt;b style=&quot;font-size: 14px;&quot;&gt;Filtrelenen Restoranların&lt;/b&gt;&lt;div style=&quot;font-size: 14px;&quot;&gt;&lt;b&gt;Görüntülenmesi&lt;/b&gt;&lt;/div&gt;" style="rounded=1;whiteSpace=wrap;html=1;fillColor=#fad9d5;strokeColor=#ae4132;" vertex="1" parent="1">
          <mxGeometry x="420" y="600" width="230" height="35" as="geometry" />
        </mxCell>
      </root>
    </mxGraphModel>
  </diagram>
</mxfile>
